<svg xmlns="http://www.w3.org/2000/svg" width="547" height="371" viewBox="0 0 547 371">
<g>
<path d="M 483.67 316.00 L 466.32 353.50 L 235.16 353.75 C108.02,353.89 4.00,353.72 4.00,353.36 C4.00,353.26 3.92,353.23 3.89,353.18 C3.73,352.85 5.32,351.61 35.76,327.92 C39.17,325.27 42.95,322.33 47.13,319.07 C111.21,269.20 121.73,261.00 153.00,236.59 C229.34,177.00 299.68,120.79 320.00,103.12 L 323.50 100.08 L 220.50 100.05 L 117.50 100.01 L 105.50 102.55 C83.99,107.11 62.66,111.89 54.59,113.97 C50.24,115.09 46.52,116.00 46.33,116.00 C46.14,116.00 47.92,112.06 50.30,107.25 C52.67,102.44 62.24,81.29 71.55,60.25 L 88.49 22.00 L 311.91 22.00 C434.65,22.00 534.92,22.13 534.92,22.30 L 534.92 22.30 C534.69,22.46 524.15,32.49 511.50,44.58 C444.24,108.89 404.91,144.08 354.50,185.08 C313.84,218.15 294.81,233.48 273.50,250.32 C260.30,260.75 247.93,270.57 246.02,272.14 L 242.54 275.00 L 446.81 275.00 L 473.15 267.39 C505.36,258.08 510.12,256.79 510.55,257.22 C510.74,257.40 508.67,262.27 505.96,268.03 C503.24,273.79 493.22,295.38 483.67,316.00 Z" fill="rgb(24,24,24)"/>
<path d="M 96.00 262.48 C76.14,277.41 76.00,277.50 76.00,276.05 C76.00,270.41 101.20,192.13 115.77,152.50 C117.39,148.10 121.09,137.98 124.00,130.00 C126.92,122.03 129.79,114.95 130.40,114.29 C131.25,113.34 148.46,113.21 207.25,113.70 C248.91,114.04 282.98,114.59 282.95,114.91 C282.92,115.24 278.31,119.01 272.70,123.31 C267.09,127.60 260.21,133.00 257.41,135.31 C239.88,149.76 195.92,184.94 163.46,210.50 C130.23,236.66 125.38,240.40 96.00,262.48 ZM 424.08 261.23 C423.26,262.17 284.00,262.73 284.00,261.79 C284.00,261.40 287.26,258.50 291.25,255.34 C327.72,226.44 374.96,187.96 425.16,146.25 C439.89,134.01 452.59,124.00 453.38,124.00 C454.63,124.00 454.63,124.70 453.41,129.25 C452.64,132.14 450.18,143.05 447.94,153.50 C428.07,246.49 425.05,260.13 424.08,261.23 Z" fill="rgb(252,139,41)"/>
<path d="M 0.00 185.50 L 0.00 0.00 L 273.50 0.00 L 547.00 0.00 L 547.00 185.50 L 547.00 371.00 L 273.50 371.00 L 0.00 371.00 L 0.00 185.50 ZM 483.67 316.00 C493.22,295.38 503.24,273.79 505.96,268.03 C508.67,262.27 510.74,257.40 510.55,257.22 C510.12,256.79 505.36,258.08 473.15,267.39 L 446.81 275.00 L 344.68 275.00 L 242.54 275.00 L 246.02 272.14 C247.93,270.57 260.30,260.75 273.50,250.32 C294.81,233.48 313.84,218.15 354.50,185.08 C404.91,144.08 444.24,108.89 511.50,44.58 C524.15,32.49 534.69,22.46 534.92,22.30 C535.15,22.13 434.79,22.00 311.91,22.00 L 88.49 22.00 L 71.55 60.25 C62.24,81.29 52.67,102.44 50.30,107.25 C47.92,112.06 46.14,116.00 46.33,116.00 C46.52,116.00 50.24,115.09 54.59,113.97 C62.66,111.89 83.99,107.11 105.50,102.55 L 117.50 100.01 L 220.50 100.05 L 323.50 100.08 L 320.00 103.12 C299.68,120.79 229.34,177.00 153.00,236.59 C121.73,261.00 111.21,269.20 47.13,319.07 C-0.54,356.18 4.00,352.57 4.00,353.36 C4.00,353.72 108.02,353.89 235.16,353.75 L 466.32 353.50 L 483.67 316.00 ZM 96.00 262.48 C125.38,240.40 130.23,236.66 163.46,210.50 C195.92,184.94 239.88,149.76 257.41,135.31 C260.21,133.00 267.09,127.60 272.70,123.31 C278.31,119.01 282.92,115.24 282.95,114.91 C282.98,114.59 248.91,114.04 207.25,113.70 C148.46,113.21 131.25,113.34 130.40,114.29 C129.79,114.95 126.92,122.03 124.00,130.00 C121.09,137.98 117.39,148.10 115.77,152.50 C101.20,192.13 76.00,270.41 76.00,276.05 C76.00,277.50 76.14,277.41 96.00,262.48 ZM 424.08 261.23 C425.05,260.13 428.07,246.49 447.94,153.50 C450.18,143.05 452.64,132.14 453.41,129.25 C454.63,124.70 454.63,124.00 453.38,124.00 C452.59,124.00 439.89,134.01 425.16,146.25 C374.96,187.96 327.72,226.44 291.25,255.34 C287.26,258.50 284.00,261.40 284.00,261.79 C284.00,262.73 423.26,262.17 424.08,261.23 Z" fill="rgb(254,254,253)"/>
</g>
</svg>